# xmcd
#
# Track frame offsets: 
#        150
#        15310
#        30677
#        44995
#        57040
#        70500
#        85122
#        99034
#        112915
#        127282
#        141212
#        154060
#        166620
#        179687
#        192322
#        207105
#        221242
#        233950
#        246347
#        259170
#
# Disc length: 3625 seconds
#
# Revision: 10
# Processed by: cddbd v1.5.2PL0 Copyright (c) Steve Scherf et al.
# Submitted via: ExactAudioCopy v1.1
#
DISCID=190e2714
DTITLE=Various Artist - Preachin' The Gospel - Holy Blues
DYEAR=1991
DGENRE=Blues
TTITLE0=Blind Willie Johnson - Motherless Children Have A Hard Time (m
TTITLE0=ono)
TTITLE1=Blind Willie Johnson - I'm Gonna Run To The City Of Refuge (mo
TTITLE1=no)
TTITLE2=Washington Phillips - Denomination Blues - Part 1 (mono)
TTITLE3=Washington Phillips - Denomination Blues - Part 2 (mono)
TTITLE4=Arizona Dranes - God's Got A Crown (mono)
TTITLE5=Arizona Dranes - He Is My Story (mono)
TTITLE6=Joshua White - Jesus Gonna Make Up My Dying Bed (mono)
TTITLE7=Joshua White - While The Blood Runs Warm In Your Veins (mono)
TTITLE8=Elder Charlie Beck - Drinking Shine (mono)
TTITLE9=Blind Gary Davis - Lord, I Wish I Could See (mono)
TTITLE10=Jessie May Hill - Unititled (mono)
TTITLE11=Jessie May Hill - Sunshine In The Shadows (mono)
TTITLE12=Washington Phillips - You Can't Stop A Tattler - Part 1 (mono
TTITLE12=)
TTITLE13=Washington Phillips - You Can't Stop A Tattler - Part 2 (mono
TTITLE13=)
TTITLE14=Rev. Johnny Blakey - King Of Kings (mono)
TTITLE15=Rev. Johnny Blakey - Jesus Was Here On Business (mono)
TTITLE16=The Blue Chips - Crying Holy Unto The Lord (mono)
TTITLE17=The Blue Chips - Stay On The Right Side Of The Road (mono)
TTITLE18=Sister O.M. Terrell - The Bible's Right (mono)
TTITLE19=Sister O.M. Terrell - I'm Going To That City (mono)
EXTD=YEAR: 1991 ID3G:   0
EXTT0=
EXTT1=
EXTT2=
EXTT3=
EXTT4=
EXTT5=
EXTT6=
EXTT7=
EXTT8=
EXTT9=
EXTT10=
EXTT11=
EXTT12=
EXTT13=
EXTT14=
EXTT15=
EXTT16=
EXTT17=
EXTT18=
EXTT19=
PLAYORDER=
